<?xml version="1.0" encoding="UTF-8" standalone="no"?>
<svg
   xmlns:dc="http://purl.org/dc/elements/1.1/"
   xmlns:cc="http://creativecommons.org/ns#"
   xmlns:rdf="http://www.w3.org/1999/02/22-rdf-syntax-ns#"
   xmlns:svg="http://www.w3.org/2000/svg"
   xmlns="http://www.w3.org/2000/svg"
   version="1.1"
   id="svg4223"
   viewBox="0 0 664.00001 165"
   height="165"
   width="664">
  <defs
     id="defs4225" />
  <metadata
     id="metadata4228">
    <rdf:RDF>
      <cc:Work
         rdf:about="">
        <dc:format>image/svg+xml</dc:format>
        <dc:type
           rdf:resource="http://purl.org/dc/dcmitype/StillImage" />
        <dc:title></dc:title>
      </cc:Work>
    </rdf:RDF>
  </metadata>
  <g
     transform="translate(0,-887.36219)"
     id="layer1">
    <g
       id="text4771"
       style="font-style:normal;font-variant:normal;font-weight:normal;font-stretch:normal;font-size:165px;line-height:125%;font-family:Damion;-inkscape-font-specification:'Damion, Normal';text-align:start;letter-spacing:0px;word-spacing:0px;writing-mode:lr-tb;text-anchor:start;fill:#ffffff;fill-opacity:1;stroke:none;stroke-width:1px;stroke-linecap:butt;stroke-linejoin:miter;stroke-opacity:1">
      <path
         id="path4881"
         style=""
         d="m 84.142736,970.92999 q -0.322265,0.40283 -1.208496,2.57813 -0.805664,2.09472 -2.01416,5.31738 -1.208496,3.22266 -2.658691,7.25098 -1.369629,3.94775 -2.900391,8.1372 -1.450195,4.10889 -2.819824,8.13722 -1.369629,3.9477 -2.497559,7.1704 -1.047363,3.2227 -1.772461,5.398 -0.725097,2.1752 -0.88623,2.5781 -0.402832,1.289 -1.289063,2.8198 -0.88623,1.6113 -2.094726,2.981 -1.208496,1.4502 -2.658692,2.3364 -1.450195,0.9668 -2.980957,0.9668 -2.578125,0 -3.786621,-1.4502 -1.127929,-1.4502 -1.127929,-5.3174 0,-0.564 0,-1.1279 0,-0.564 0.08057,-1.2085 0.08057,-1.2891 1.208496,-4.834 1.12793,-3.5449 2.658692,-7.9761 1.611328,-4.5117 3.383789,-9.26512 1.853027,-4.83398 3.303222,-8.62061 -4.270019,4.02833 -9.265136,8.05665 -4.995118,3.94775 -10.231934,7.17038 -5.236816,3.1421 -10.554199,5.1563 -5.317383,2.0141 -10.231934,2.0141 -5.639648,0 -9.748535,-2.0947 -4.02832,-2.0947 -6.6870117,-5.4785 -2.6586914,-3.3838 -3.9477539,-7.65382 -1.2890625,-4.27001 -1.2890625,-8.54003 0,-0.56397 0,-1.04737 0,-0.4834 0.080566,-0.96679 0.4833984,-7.73438 2.578125,-15.87159 2.1752929,-8.1372 5.6396487,-16.19384 3.464355,-8.05664 7.976074,-15.71045 4.592285,-7.73438 9.909668,-14.58252 5.397949,-6.84815 11.44043,-12.56836 6.04248,-5.80078 12.407226,-9.90967 6.364746,-4.18945 12.810059,-6.52588 6.525879,-2.33642 12.890625,-2.33642 7.331543,0 14.179687,3.38378 6.848145,3.38379 12.810056,10.95704 1.36963,1.69189 1.6919,3.46435 0.40283,1.6919 0.40283,3.22266 0,3.62549 -2.09473,5.72021 -2.01416,2.09473 -4.83398,2.09473 -2.578127,0 -4.833986,-2.25586 -2.175293,-2.33643 -4.914551,-6.60645 -2.578125,-3.86718 -5.720215,-5.55908 -3.061523,-1.77246 -6.687011,-1.77246 -5.639649,0 -12.084961,3.94775 -6.364746,3.94776 -12.648926,10.47364 -6.28418,6.44531 -12.084961,14.82422 -5.720215,8.29834 -10.151367,17.08007 -4.431152,8.70118 -7.089844,17.24122 -2.578125,8.45947 -2.578125,15.22705 0,2.25586 0.322266,4.67285 0.402832,2.33642 1.369629,4.27002 1.047363,1.93359 2.739257,3.22265 1.772461,1.2085 4.431153,1.2085 2.980957,0 6.767578,-1.69189 3.786621,-1.6919 7.814941,-4.43116 4.108887,-2.73925 8.217774,-6.20361 4.108887,-3.46436 7.653808,-7.00928 3.544922,-3.54492 6.28418,-6.76758 2.739258,-3.30322 4.108887,-5.72021 l 7.492676,-18.93311 q 1.369628,-3.06152 3.544921,-4.35058 2.25586,-1.28906 4.592286,-1.28906 1.127929,0 2.255859,0.32226 1.12793,0.32227 2.01416,1.04736 0.886231,0.64454 1.369629,1.77247 0.563965,1.04736 0.563965,2.49755 0,3.86719 -0.805664,7.25098 -0.805664,3.38379 -2.094727,6.60645 -1.208496,3.22265 -2.739258,6.52587 -1.530761,3.22266 -2.980957,6.76758 z" />
      <path
         id="path4883"
         style=""
         d="m 185.73697,986.72101 q -3.54492,4.02832 -8.29834,7.89551 -4.67285,3.78662 -9.66796,6.76758 -4.99512,2.981 -9.82911,4.7534 -4.83398,1.853 -8.70117,1.853 -3.86718,0 -6.28418,-2.1753 -2.41699,-2.1752 -2.41699,-7.41206 0,-3.70606 1.28906,-8.62061 -2.09472,3.14209 -5.23681,6.36475 -3.14209,3.22265 -7.17041,5.88132 -4.02832,2.6587 -9.02344,4.27 -4.99512,1.6919 -10.87647,1.6919 -2.65869,0 -5.15625,-0.5639 -2.41699,-0.564 -4.27002,-1.9336 -1.853022,-1.3696 -2.980952,-3.6255 -1.12793,-2.33643 -1.12793,-5.80079 0,-0.0806 0.322266,-2.41699 0.322265,-2.41699 2.01416,-7.49268 1.772456,-5.15625 5.397946,-13.29345 3.62549,-8.13721 10.23194,-19.73877 1.69189,-3.06153 3.86718,-4.35059 2.25586,-1.36963 4.83399,-1.36963 1.12793,0 2.33642,0.32227 1.2085,0.2417 2.25586,0.88623 1.04737,0.56396 1.6919,1.53076 0.64453,0.88623 0.64453,2.09473 0,0.80566 -0.2417,1.53076 -0.40283,1.36963 -1.77246,3.62549 -1.28906,2.17529 -3.06152,5.07568 -1.77246,2.81982 -3.78663,6.12305 -1.93359,3.30322 -3.62548,6.84814 -1.6919,3.54492 -2.90039,7.25098 -1.2085,3.62549 -1.36963,7.08984 0,1.4502 0.80566,2.65869 0.80567,1.2085 2.65869,1.2085 5.23682,0 9.99024,-2.90039 4.75341,-2.90039 8.78174,-7.17041 4.02832,-4.35059 7.25097,-9.26514 3.30322,-4.99512 5.47852,-9.104 1.53076,-2.73926 2.65869,-5.88135 1.20849,-3.14209 2.57812,-5.80078 1.36963,-2.65869 3.14209,-4.43115 1.77246,-1.77246 4.43116,-1.77246 2.90039,0 4.59228,1.85302 1.6919,1.85303 1.6919,4.43116 0,1.45019 -1.12793,4.02832 -1.04737,2.49755 -2.73926,5.80078 -1.61133,3.22265 -3.54492,6.92871 -1.9336,3.70605 -3.62549,7.57324 -1.61133,3.78662 -2.73926,7.49268 -1.04736,3.62548 -1.04736,6.76757 0,2.90039 3.54492,2.90039 2.49756,0 6.20361,-1.45019 3.70606,-1.4502 7.73438,-4.02832 4.10888,-2.65869 8.1372,-6.20361 4.10889,-3.54493 7.25098,-7.65381 l 0.80566,10.95703 z" />
      <path
         id="path4885"
         style=""
         d="m 188.23453,982.69269 q -0.88623,1.85303 -1.77246,4.35058 -0.80566,2.417 -0.80566,4.35059 0,1.2085 0.4834,1.93359 0.4834,0.7251 1.85302,0.7251 1.6919,0 4.18946,-0.9668 2.57812,-1.04736 5.47851,-2.65869 2.98096,-1.69189 6.12305,-3.78662 3.22266,-2.17529 6.36475,-4.43115 3.14209,-2.33643 5.96191,-4.59229 2.90039,-2.33642 5.15625,-4.27002 0.64453,-0.56396 1.53076,-0.80566 0.88623,-0.2417 1.53076,-0.2417 1.61133,0 2.65869,1.12793 1.04737,1.12793 1.04737,2.98096 0,1.69189 -1.12793,3.78662 -1.12793,2.09473 -3.94776,4.10889 -5.15625,4.75341 -10.39306,9.02343 -5.23682,4.27002 -10.47363,7.57325 -5.15625,3.2227 -10.3125,5.1562 -5.07569,1.9336 -9.90967,1.9336 -3.30323,0 -5.55908,-0.8862 -2.1753,-0.8862 -3.54493,-2.417 -1.28906,-1.5307 -1.85302,-3.6255 -0.56397,-2.0947 -0.56397,-4.43112 0,-3.94776 1.12793,-8.05664 1.2085,-4.18946 2.81983,-7.65381 2.81982,-6.28418 5.72021,-12.4878 2.90039,-6.20361 5.31738,-11.35986 l 24.41162,-51.96533 q 1.4502,-3.14209 3.86719,-4.43115 2.49756,-1.28907 4.99512,-1.28907 2.49756,0 4.51172,1.36963 2.09472,1.36963 2.09472,4.43116 0,1.45019 -0.72509,3.06152 -0.64454,1.61133 -1.6919,3.46435 -2.01416,3.78663 -4.83398,9.26514 -2.73926,5.47852 -5.96192,11.92383 -3.14209,6.44531 -6.52588,13.45459 -3.30322,6.92871 -6.52587,13.53516 -3.14209,6.60644 -5.96192,12.56835 -2.73926,5.88135 -4.75342,10.23194 z" />
      <path
         id="path4887"
         style=""
         d="m 302.39713,968.11017 q 1.12793,-0.64453 2.09473,-1.04736 0.96679,-0.40284 1.85302,-0.40284 1.77247,0 2.6587,1.36963 0.88623,1.28906 0.88623,3.22266 0,2.09472 -1.12793,4.27002 -1.04737,2.17529 -3.22266,3.62549 -8.6206,6.44531 -15.38818,11.76269 -6.76758,5.31738 -12.81006,9.18454 -5.96192,3.7867 -11.68213,5.8814 -5.72022,2.0947 -12.24609,2.0947 -6.12305,0 -9.50684,-2.2559 -3.30322,-2.2558 -3.30322,-6.20357 0,-0.32226 0,-0.56396 0,-0.32227 0.0806,-0.7251 0.32227,-2.41699 2.49756,-5.55908 2.1753,-3.14209 5.23682,-6.52588 3.06152,-3.38379 6.52588,-6.84814 3.46435,-3.46436 6.36474,-6.52588 2.98096,-3.14209 4.91455,-5.72022 1.9336,-2.57812 1.9336,-4.18945 0,-0.9668 -0.80567,-1.53076 -0.80566,-0.56397 -2.65869,-0.56397 -3.22265,0 -6.68701,1.4502 -3.38379,1.36963 -6.76758,3.78662 -3.30322,2.33642 -6.52588,5.39795 -3.14209,3.06152 -5.96191,6.36474 -2.73926,3.30323 -5.07568,6.68702 -2.25586,3.30322 -3.86719,6.12304 -0.4834,0.88623 -1.36963,2.49756 -0.88623,1.61133 -1.93359,3.62549 -1.04737,2.01416 -2.25586,4.18949 -1.12793,2.0947 -2.09473,4.0283 -0.9668,1.853 -1.77246,3.3032 -0.7251,1.5308 -1.04736,2.0947 -0.40284,0.7251 -1.36963,2.7393 -0.88623,2.0141 -2.09473,4.6728 -1.2085,2.7393 -2.57812,5.7203 -1.28907,2.9809 -2.49756,5.6396 -1.12793,2.6587 -2.01416,4.6729 -0.88623,2.0141 -1.12793,2.7392 -0.80567,2.0947 -1.85303,3.9478 -1.12793,1.853 -2.49756,3.2226 -1.45019,1.4502 -3.22265,2.2559 -1.85303,0.8862 -4.10889,0.8862 -2.90039,0 -4.75342,-1.2085 -1.93359,-1.1279 -1.93359,-4.4311 0,-1.6114 0.4834,-3.3033 0.48339,-1.6919 1.20849,-3.3837 0.7251,-1.6114 1.53076,-3.2227 0.7251,-1.5308 1.36963,-2.981 4.35059,-8.0566 8.86231,-16.1938 4.51172,-8.0566 8.6206,-15.95216 4.18946,-7.97607 7.73438,-15.62988 3.54492,-7.65381 5.88134,-14.66308 0.64454,-1.4502 1.77247,-4.10889 1.12793,-2.65869 2.57812,-5.23682 1.4502,-2.57812 3.22266,-4.43115 1.85302,-1.93359 3.94775,-1.93359 3.22266,0 4.67285,1.28906 1.4502,1.20849 1.4502,3.62549 0,0.4834 -0.16114,1.53076 -0.16113,1.04736 -0.40283,2.25586 -0.2417,1.12793 -0.56396,2.17529 -0.2417,1.04736 -0.4834,1.53076 2.98096,-2.73925 6.44531,-5.39795 3.46436,-2.73925 7.17041,-4.91455 3.70606,-2.17529 7.57324,-3.54492 3.86719,-1.36963 7.73438,-1.36963 2.65869,0 5.23682,0.64453 2.65869,0.64453 4.67285,1.9336 2.09472,1.20849 3.38379,3.14209 1.28906,1.85302 1.28906,4.35058 0,3.30323 -2.01416,7.08985 -1.9336,3.70605 -4.91455,7.49267 -2.98096,3.78662 -6.44531,7.41211 -3.46436,3.54492 -6.52588,6.52588 -2.98096,2.90039 -5.07569,4.99512 -2.01416,2.01416 -2.09472,2.73926 0,0.96679 0.72509,1.61132 0.7251,0.56397 2.417,0.56397 1.36963,0 4.02832,-1.28906 2.65869,-1.28907 7.41211,-4.43116 4.83398,-3.22265 12.16552,-8.54004 7.41211,-5.39794 18.20801,-13.53515 z" />
      <path
         id="path4889"
         style=""
         d="m 365.15836,971.33282 q 1.36963,0 2.17529,1.2085 0.80567,1.12793 0.80567,2.65869 0,2.01416 -1.53076,3.86719 -1.53076,1.77246 -5.07569,1.77246 l -36.33545,0 q -1.36962,0 -2.09472,-0.9668 -0.64453,-0.96679 -0.64453,-2.33642 0,-1.04737 0.40283,-2.09473 0.4834,-1.12793 1.36963,-2.01416 0.96679,-0.88623 2.41699,-1.45019 1.45019,-0.64454 3.54492,-0.64454 l 34.96582,0 z" />
      <path
         id="path4891"
         style=""
         d="m 476.90397,904.22101 q 0,2.17529 -0.7251,5.23681 -0.64453,3.06153 -1.93359,6.36475 -1.28907,3.30322 -3.14209,6.60645 -1.77247,3.22265 -4.10889,5.88134 -2.33643,2.57813 -5.07568,4.18946 -2.73926,1.61133 -5.88135,1.61133 -0.7251,0 -1.9336,-0.0806 -1.12793,-0.16113 -2.33642,-0.56397 -1.12793,-0.48339 -2.01416,-1.36963 -0.80567,-0.88623 -0.80567,-2.33642 0,-0.9668 0.4834,-2.25586 0.56397,-1.28906 1.9336,-2.98096 1.45019,-1.61133 3.14209,-3.78662 1.69189,-2.25586 3.06152,-4.67285 1.36963,-2.41699 2.25586,-4.75342 0.9668,-2.33642 0.9668,-4.18945 0,-2.33643 -1.12793,-3.70606 -1.04737,-1.45019 -3.70606,-1.45019 -3.46435,0 -7.81494,2.25586 -4.35059,2.25586 -9.104,6.20361 -4.75342,3.94776 -9.66797,9.26514 -4.91455,5.23681 -9.50684,11.2793 -4.59228,5.96191 -8.70117,12.48779 -4.02832,6.44531 -7.08984,12.81006 -2.98096,6.28418 -4.75342,12.16552 -1.6919,5.80079 -1.6919,10.5542 0,5.88135 3.14209,9.42627 3.14209,3.54492 10.39307,3.54492 3.38379,0 10.0708,-2.57812 6.68701,-2.65869 11.11816,-5.23682 4.51172,-2.65869 9.02344,-5.80078 4.59229,-3.22265 8.70117,-6.12304 4.10889,-2.98096 7.49268,-5.31739 3.38379,-2.41699 5.55908,-3.38379 0.40283,-0.32226 0.9668,-0.32226 1.20849,0 1.61133,2.01416 0.48339,1.93359 0.48339,4.43115 0,1.36963 -0.40283,3.38379 -0.32226,1.93359 -2.25586,4.51172 -0.88623,1.04736 -3.30322,3.54492 -2.41699,2.49756 -6.04248,5.63965 -3.62549,3.14209 -8.29834,6.52588 -4.67285,3.38379 -10.15137,6.20361 -5.39795,2.8198 -14.01855,5.5591 -8.54004,2.7392 -14.90479,2.7392 -7.49267,0 -12.81006,-1.7724 -5.31738,-1.853 -8.70117,-5.0757 -3.38379,-3.22266 -4.99511,-7.65381 -1.53077,-4.51172 -1.53077,-9.8291 0,-6.60645 2.01416,-14.17969 2.01416,-7.57324 5.55909,-15.38819 3.62548,-7.81494 8.54004,-15.62988 4.99511,-7.81494 10.87646,-14.90478 5.96191,-7.17041 12.64893,-13.29346 6.68701,-6.12305 13.69629,-10.63477 7.00927,-4.51171 14.09912,-7.08984 7.08984,-2.57812 13.93798,-2.57812 3.38379,0 6.44532,0.80566 3.06152,0.7251 5.31738,2.41699 2.33643,1.6919 3.62549,4.51172 1.36963,2.73926 1.36963,6.76758 z" />
      <path
         id="path4893"
         style=""
         d="m 451.52555,993.24689 q 1.93359,-4.10889 4.43115,-9.10401 2.49756,-5.07568 4.99512,-9.99023 2.57812,-4.99512 4.83398,-9.42627 2.25586,-4.51172 3.78662,-7.65381 l 26.58692,-52.2876 q 0.4834,-1.04736 1.45019,-2.01416 1.04737,-0.96679 2.33643,-1.69189 1.28906,-0.80567 2.73926,-1.2085 1.45019,-0.4834 2.90039,-0.4834 3.54492,0 4.91455,1.36963 1.36963,1.28907 1.36963,3.22266 0,1.77246 -0.88623,3.78662 -0.88623,1.93359 -2.01416,3.62549 -3.54493,6.04248 -6.84815,12.24609 -3.22265,6.12305 -6.52588,12.40723 -3.22265,6.20361 -6.52588,12.40723 -3.30322,6.12304 -6.92871,12.16552 2.25586,-2.17529 4.75342,-4.51172 2.57813,-2.33642 5.55908,-4.27002 2.98096,-1.93359 6.52588,-3.14209 3.54492,-1.28906 7.89551,-1.28906 2.57813,0 4.91455,0.4834 2.33643,0.4834 4.10889,1.61133 1.77246,1.04736 2.81982,2.98096 1.04737,1.85302 1.04737,4.59228 0,3.62549 -1.12793,6.68701 -1.04737,2.98096 -2.73926,5.72022 -1.6919,2.65869 -3.70606,5.15625 -2.01416,2.41699 -3.86718,4.99511 -1.77247,2.49756 -3.14209,5.23682 -1.28907,2.73926 -1.61133,5.96192 0,0.16113 -0.0806,0.32226 0,0.16113 0,0.32227 0,1.61132 1.04736,2.01416 1.12793,0.40283 2.81983,0.40283 2.17529,0 4.67285,-0.80567 2.49756,-0.88623 4.99512,-2.25585 2.57812,-1.4502 5.07568,-3.22266 2.57813,-1.77246 4.83399,-3.62549 2.33642,-1.85303 4.27001,-3.54492 1.9336,-1.77246 3.30323,-3.06152 0.7251,-0.64454 1.53076,-0.9668 0.80566,-0.32227 1.53076,-0.32227 1.4502,0 2.41699,1.12793 1.04737,1.04737 1.04737,2.90039 0,1.6919 -1.2085,3.86719 -1.12793,2.17529 -3.94775,4.35059 -4.43116,3.86718 -9.02344,7.41211 -4.59229,3.54492 -9.26514,6.28415 -4.67285,2.7393 -9.3457,4.3506 -4.59229,1.6113 -9.02344,1.6113 -5.72021,0 -9.18457,-2.5781 -3.46435,-2.6587 -3.46435,-8.29833 0,-4.10888 1.36962,-7.73437 1.4502,-3.70605 3.46436,-7.08984 2.09473,-3.46436 4.43115,-6.60645 2.33643,-3.22266 4.10889,-6.28418 0.9668,-1.36963 1.45019,-2.49756 0.56397,-1.20849 0.56397,-2.57812 0,-1.2085 -0.64453,-1.9336 -0.64453,-0.80566 -2.01416,-0.80566 -4.75342,0 -8.78174,2.33643 -4.02832,2.33642 -7.41211,5.96191 -3.38379,3.62549 -6.28418,7.97607 -2.90039,4.27002 -5.39795,8.21778 -1.12793,1.77246 -2.33642,4.10888 -1.12793,2.25586 -2.417,4.67286 -1.20849,2.41699 -2.57812,4.83398 -1.36963,2.3364 -2.90039,4.1895 -1.4502,1.853 -3.14209,2.9809 -1.61133,1.1279 -3.38379,1.1279 -2.81983,0 -4.35059,-1.6919 -1.53076,-1.6113 -1.53076,-4.1088 0,-1.8531 0.64453,-3.86723 0.64453,-2.09473 2.09473,-5.07568 z" />
      <path
         id="path4895"
         style=""
         d="m 565.04362,958.4422 q -0.40284,-0.0806 -0.7251,-0.0806 -0.32227,0 -0.7251,0 -3.06152,0 -5.72021,1.2085 -2.6587,1.2085 -4.91456,3.22266 -2.17529,1.93359 -3.94775,4.43115 -1.69189,2.49756 -3.06152,4.99512 -1.36963,2.41699 -2.33643,4.67285 -0.88623,2.25586 -1.36963,3.78662 2.81983,-1.4502 5.80078,-3.30322 3.06153,-1.85303 5.72022,-3.54493 2.65869,-1.69189 4.59228,-3.06152 2.01416,-1.36963 2.81983,-1.85303 3.62549,-2.25586 4.99512,-4.18945 1.36962,-2.01416 1.36962,-3.46436 0,-1.20849 -0.80566,-1.93359 -0.7251,-0.7251 -1.69189,-0.88623 z m 2.90039,-11.11816 q 6.68701,0 9.99023,3.22265 3.30322,3.22266 3.30322,8.94287 0,3.38379 -1.77246,7.08985 -1.77246,3.70605 -6.12304,7.57324 -4.35059,3.78662 -11.68213,7.81494 -7.25098,3.94775 -18.20801,7.97607 0.40283,2.33643 2.49756,3.70606 2.09472,1.28906 5.55908,1.28906 3.70605,0 7.89551,-1.04736 4.27002,-1.12793 8.3789,-2.81983 4.18946,-1.69189 8.13721,-3.62548 3.94775,-2.01416 7.08984,-3.78663 3.22266,-1.77246 5.31739,-3.06152 2.17529,-1.28906 2.90039,-1.61133 0.7251,-0.4834 1.28906,-0.56396 0.64453,-0.0806 1.12793,-0.0806 0.9668,0 1.61133,0.4834 0.64453,0.40283 1.04736,1.04736 0.4834,0.56397 0.64453,1.28907 0.16114,0.64453 0.16114,1.12793 0,0.72509 -0.16114,1.77246 -0.16113,0.96679 -1.20849,2.25586 -0.40284,0.40283 -2.73926,2.17529 -2.25586,1.77246 -5.88135,4.18945 -3.62549,2.41699 -8.45947,5.15625 -4.75342,2.65873 -10.15137,4.91453 -5.31738,2.2559 -11.11816,3.7061 -5.80078,1.5307 -11.44043,1.5307 -4.83399,0 -8.62061,-1.853 -3.70605,-1.853 -6.36474,-4.9951 -2.57813,-3.14209 -3.94776,-7.25098 -1.36963,-4.10889 -1.36963,-8.62061 0,-3.46435 1.36963,-7.57324 1.36963,-4.18945 3.94776,-8.37891 2.57812,-4.18945 6.28418,-8.1372 3.78662,-4.02832 8.45947,-7.08985 4.67285,-3.06152 10.23193,-4.91455 5.63965,-1.85302 12.0044,-1.85302 z" />
      <path
         id="path4897"
         style=""
         d="m 644.07926,960.21466 q -4.18945,0.16113 -7.97607,0.2417 -3.70606,0.0806 -7.25098,0.16113 -3.54492,0 -7.00928,0 -3.46435,0 -7.00928,0 -2.09472,4.10889 -4.75341,9.58741 -2.57813,5.39794 -5.47852,11.35986 -2.81982,5.96191 -5.72021,12.08496 -2.81983,6.04248 -5.39795,11.52098 -2.57813,5.398 -4.67285,9.7486 -2.09473,4.4311 -3.38379,7.0092 -0.88623,1.8531 -2.1753,3.3838 -1.28906,1.6113 -2.81982,2.7393 -1.53076,1.1279 -3.14209,1.6919 -1.61133,0.6445 -2.98096,0.6445 -1.93359,0 -3.46435,-0.9668 -1.53077,-0.9668 -1.53077,-3.0615 0,-1.0474 0.4834,-2.4976 0.4834,-1.3696 1.36963,-3.2226 l 28.43994,-60.26371 -4.27002,0 q -4.43115,0 -6.04248,-1.36963 -1.61132,-1.36962 -1.61132,-3.22265 0,-1.9336 2.01416,-3.70606 2.01416,-1.85302 5.88134,-1.85302 l 9.50684,0 q 5.72021,-11.521 11.44043,-19.01368 5.80078,-7.49267 11.35986,-11.84326 5.55908,-4.35058 10.7959,-6.04248 5.31738,-1.69189 10.15137,-1.69189 2.25586,0 4.27002,0.88623 2.09472,0.88623 3.62549,2.65869 1.61132,1.77246 2.57812,4.51172 0.9668,2.65869 0.9668,6.28418 0,3.46435 -0.9668,7.65381 -0.2417,1.12793 -0.9668,1.93359 -0.72509,0.7251 -1.61132,1.2085 -0.88623,0.48339 -1.77247,0.72509 -0.88623,0.16114 -1.53076,0.16114 -1.61133,0 -2.98095,-0.7251 -1.36963,-0.80566 -1.36963,-2.41699 0,-1.04737 0.0806,-1.9336 0.16114,-0.88623 0.16114,-1.77246 0,-3.38379 -1.28907,-4.83398 -1.20849,-1.4502 -3.30322,-1.4502 -2.49756,0 -5.88135,2.1753 -3.30322,2.17529 -6.76757,5.80078 -3.38379,3.62549 -6.52588,8.29834 -3.14209,4.59228 -5.15625,9.42627 l 18.77197,0 q 2.49756,0 4.67285,0.0806 2.17529,0.0806 3.78662,0.4834 1.6919,0.40283 2.57813,1.36963 0.96679,0.88623 0.96679,2.65869 0,0.88623 -0.32226,1.77246 -0.32227,0.88623 -1.12793,1.6919 -0.7251,0.72509 -2.09473,1.28906 -1.36963,0.4834 -3.54492,0.64453 z" />
    </g>
  </g>
</svg>
